<svg xmlns="http://www.w3.org/2000/svg" xmlns:xlink="http://www.w3.org/1999/xlink" viewBox="0 0 1080 1080" width="1080" height="1080" preserveAspectRatio="xMidYMid meet" style="width: 100%; height: 100%; transform: translate3d(0px, 0px, 0px); content-visibility: visible;" id="Torch"><defs><clipPath id="__lottie_element_3414"><rect width="1080" height="1080" x="0" y="0"/></clipPath></defs><g clip-path="url(#__lottie_element_3414)"><g transform="matrix(1,0,0,1,540,540)" opacity="1" style="display: block;"><g opacity="1" transform="matrix(1,0,0,1,0,0)"><path fill="rgb(255,138,0)" fill-opacity="1" d=" M-43.5,-318 C-43.5,-318 -26,-299.5 -22,-277.5 C-18,-255.5 -11.324999809265137,-247.31900024414062 -13.5,-218.5 C-15.5,-192 -29.5,-197.5 -54,-175.5 C-74.03399658203125,-157.50999450683594 -92.5,-145.5 -93.5,-122.5 C-95.88999938964844,-67.53099822998047 -45.5,-10 -45.5,-10 C-45.5,-10 1.7239999771118164,-0.6190000176429749 28.844999313354492,-5.809000015258789 C42.37200164794922,-8.397000312805176 49.00699996948242,-19.503000259399414 53.5,-21.5 C71.5,-29.5 93.5,-45.5 93.5,-70 C93.5,-93.16200256347656 87.71099853515625,-88.00700378417969 75.5,-116.5 C62,-148 60.54199981689453,-163.07200622558594 48,-200 C39,-226.5 50.5,-251 45.5,-246.5 C33.67100143432617,-235.85400390625 28.413999557495117,-221.84300231933594 27,-227.5 C25.5,-233.5 12.5,-262 5.5,-280 C-4.63100004196167,-306.04998779296875 -43.5,-318 -43.5,-318z"/><path stroke-linecap="butt" stroke-linejoin="miter" fill-opacity="0" stroke-miterlimit="4" stroke="rgb(188,169,134)" stroke-opacity="1" stroke-width="0" d=" M-43.5,-318 C-43.5,-318 -26,-299.5 -22,-277.5 C-18,-255.5 -11.324999809265137,-247.31900024414062 -13.5,-218.5 C-15.5,-192 -29.5,-197.5 -54,-175.5 C-74.03399658203125,-157.50999450683594 -92.5,-145.5 -93.5,-122.5 C-95.88999938964844,-67.53099822998047 -45.5,-10 -45.5,-10 C-45.5,-10 1.7239999771118164,-0.6190000176429749 28.844999313354492,-5.809000015258789 C42.37200164794922,-8.397000312805176 49.00699996948242,-19.503000259399414 53.5,-21.5 C71.5,-29.5 93.5,-45.5 93.5,-70 C93.5,-93.16200256347656 87.71099853515625,-88.00700378417969 75.5,-116.5 C62,-148 60.54199981689453,-163.07200622558594 48,-200 C39,-226.5 50.5,-251 45.5,-246.5 C33.67100143432617,-235.85400390625 28.413999557495117,-221.84300231933594 27,-227.5 C25.5,-233.5 12.5,-262 5.5,-280 C-4.63100004196167,-306.04998779296875 -43.5,-318 -43.5,-318z"/></g></g><g transform="matrix(1,0,0,1,543,540)" opacity="1" style="display: block;"><g opacity="1" transform="matrix(1,0,0,1,0,0)"><path fill="rgb(255,138,0)" fill-opacity="1" d=" M15.25,-178.5 C15.25,-178.5 -18.5,-151 -37.5,-124.5 C-60.92399978637695,-91.83000183105469 -43,-80 -43.5,-46 C-44.005001068115234,-11.692999839782715 -19.5,-12 -19.5,-12 C-19.5,-12 12.75,-13.5 12.75,-13.5 C12.75,-13.5 36.25,-22.25 60.5,-41.5 C83.53500366210938,-59.7859992980957 47.21200180053711,-97.33699798583984 22.75,-112.5 C-7.5,-131.25 15.25,-178.5 15.25,-178.5z"/><path stroke-linecap="butt" stroke-linejoin="miter" fill-opacity="0" stroke-miterlimit="4" stroke="rgb(188,169,134)" stroke-opacity="1" stroke-width="0" d=" M15.25,-178.5 C15.25,-178.5 -18.5,-151 -37.5,-124.5 C-60.92399978637695,-91.83000183105469 -43,-80 -43.5,-46 C-44.005001068115234,-11.692999839782715 -19.5,-12 -19.5,-12 C-19.5,-12 12.75,-13.5 12.75,-13.5 C12.75,-13.5 36.25,-22.25 60.5,-41.5 C83.53500366210938,-59.7859992980957 47.21200180053711,-97.33699798583984 22.75,-112.5 C-7.5,-131.25 15.25,-178.5 15.25,-178.5z"/></g></g><g transform="matrix(1,0,0,1,540,540)" opacity="1" style="display: block;"><g opacity="1" transform="matrix(1,0,0,1,0,0)"><path fill="rgb(255,204,0)" fill-opacity="1" d=" M19.5,-180 C19.5,-180 -18.5,-151 -37.5,-124.5 C-60.92399978637695,-91.83000183105469 -43,-80 -43.5,-46 C-44.005001068115234,-11.692999839782715 -19.5,-12 -19.5,-12 C-19.5,-12 24,-13.5 24,-13.5 C24,-13.5 41.5,-23 60.5,-41.5 C81.5719985961914,-62.018001556396484 44.5,-101 23,-116 C-9.77400016784668,-138.86599731445312 19.5,-180 19.5,-180z"/><path stroke-linecap="butt" stroke-linejoin="miter" fill-opacity="0" stroke-miterlimit="4" stroke="rgb(188,169,134)" stroke-opacity="1" stroke-width="0" d=" M19.5,-180 C19.5,-180 -18.5,-151 -37.5,-124.5 C-60.92399978637695,-91.83000183105469 -43,-80 -43.5,-46 C-44.005001068115234,-11.692999839782715 -19.5,-12 -19.5,-12 C-19.5,-12 24,-13.5 24,-13.5 C24,-13.5 41.5,-23 60.5,-41.5 C81.5719985961914,-62.018001556396484 44.5,-101 23,-116 C-9.77400016784668,-138.86599731445312 19.5,-180 19.5,-180z"/></g></g><g transform="matrix(1,0,0,1,540,540)" opacity="1" style="display: block;"><g opacity="1" transform="matrix(1,0,0,1,0,0)"><path fill="rgb(255,242,202)" fill-opacity="1" d=" M54,-24 C54,-24 35,-21 -0.5,-21 C-33.5,-21 -58,-24 -58,-24 C-58,-24 -31.650999069213867,169.60699462890625 -9.21399974822998,208.16799926757812 C-6.7210001945495605,212.4530029296875 6.443999767303467,212.7969970703125 9.267000198364258,207.13400268554688 C30.775999069213867,163.98300170898438 54,-24 54,-24z"/><path stroke-linecap="butt" stroke-linejoin="miter" fill-opacity="0" stroke-miterlimit="4" stroke="rgb(188,169,134)" stroke-opacity="1" stroke-width="0" d=" M54,-24 C54,-24 35,-21 -0.5,-21 C-33.5,-21 -58,-24 -58,-24 C-58,-24 -31.650999069213867,169.60699462890625 -9.21399974822998,208.16799926757812 C-6.7210001945495605,212.4530029296875 6.443999767303467,212.7969970703125 9.267000198364258,207.13400268554688 C30.775999069213867,163.98300170898438 54,-24 54,-24z"/></g></g></g></svg>